<?xml version="1.0" standalone="no"?>
<!DOCTYPE svg PUBLIC "-//W3C//DTD SVG 20010904//EN"
 "http://www.w3.org/TR/2001/REC-SVG-20010904/DTD/svg10.dtd">
<svg version="1.0" xmlns="http://www.w3.org/2000/svg"
 width="700.000000pt" height="700.000000pt" viewBox="0 0 700.000000 700.000000"
 preserveAspectRatio="xMidYMid meet">
<metadata>
Created by potrace 1.11, written by Peter Selinger 2001-2013
</metadata>
<g transform="translate(0.000000,700.000000) scale(0.100000,-0.100000)"
fill="#000000" stroke="none">
<path d="M5743 5561 c-148 -19 -207 -31 -219 -43 -19 -19 -14 15 -220 -1610
-76 -604 -141 -1098 -144 -1098 -3 0 -63 593 -134 1318 -70 724 -130 1325
-133 1334 -2 10 -15 21 -29 24 -13 3 -126 -7 -251 -24 -208 -27 -229 -32 -248
-54 -18 -21 -40 -177 -195 -1391 -96 -752 -178 -1359 -182 -1350 -3 10 -65
618 -138 1352 -72 733 -134 1339 -136 1346 -3 8 -12 16 -20 19 -24 9 -537 -55
-561 -70 -14 -9 -23 -24 -23 -40 0 -14 115 -823 255 -1797 180 -1253 259
-1776 270 -1786 18 -19 43 -17 341 19 297 36 290 34 308 63 10 15 56 379 142
1114 71 601 130 1091 131 1089 1 -1 50 -490 108 -1085 60 -626 110 -1090 116
-1098 6 -7 28 -13 48 -13 56 0 523 60 549 70 12 5 27 20 33 32 5 13 153 844
329 1848 227 1303 316 1829 309 1842 -13 24 -53 22 -306 -11z"/>
<path d="M1805 5249 c-335 -38 -702 -93 -752 -114 -25 -10 -33 -21 -37 -47 -3
-18 -26 -840 -52 -1825 -37 -1438 -44 -1796 -34 -1808 17 -21 34 -20 316 20
295 42 284 37 284 154 0 113 30 1284 33 1287 1 2 43 8 92 14 370 48 649 166
836 355 144 145 225 313 271 562 19 104 22 153 22 413 0 315 -10 413 -55 550
-74 226 -216 362 -444 426 -71 20 -352 28 -480 13z m204 -594 c109 -60 155
-148 173 -329 12 -133 4 -365 -16 -458 -40 -183 -138 -282 -336 -342 -82 -24
-246 -53 -255 -44 -5 5 25 1181 30 1186 11 11 125 20 230 19 112 -2 123 -4
174 -32z"/>
</g>
</svg>
