<?xml version="1.0" encoding="UTF-8"?>
<svg viewBox="0 0 100 100" version="1.1" xmlns="http://www.w3.org/2000/svg" xmlns:xlink="http://www.w3.org/1999/xlink">
    <defs>
        <linearGradient x1="-32.3474778%" y1="132.206583%" x2="138.741829%" y2="-33.4286065%" id="linearGradient-1">
            <stop stop-color="#F5D03D" offset="0%"></stop>
            <stop stop-color="#FFFF80" offset="100%"></stop>
        </linearGradient>
    </defs>
    <g id="cool" stroke="none" stroke-width="1" fill="none" fill-rule="evenodd">
        <circle id="Oval-Copy" fill="url(#linearGradient-1)" cx="50" cy="50" r="48"></circle>
        <g id="Group" transform="translate(1.000000, 1.000000)" fill="#333333" fill-rule="nonzero">
            <g id="smiling-face-with-sunglasses">
                <path d="M48.9181628,0 C21.9118998,0 0,21.9118998 0,48.9181628 C0,75.9244259 21.9118998,97.8363257 48.9181628,97.8363257 C75.9244259,97.8363257 97.8363257,75.9244259 97.8363257,48.9181628 C97.8363257,21.9118998 75.9039666,0 48.9181628,0 Z M48.9181628,3.90772443 C64.5695198,3.90772443 78.6659708,12.1323591 86.4816242,24.2442589 C77.09081,23.0780793 61.0507265,23.4668058 49.6958205,26.2083507 C49.3070939,26.2083507 49.3070939,26.2083507 48.9181628,26.2083507 C48.5296409,26.2083507 48.5296409,26.2083507 48.1407098,26.2083507 C36.7858038,23.4668058 20.7457203,23.0780793 11.3549061,24.2442589 C19.1703549,12.1323591 33.2668058,3.90772443 48.9181628,3.90772443 Z M48.9181628,93.908142 C23.8759916,93.908142 3.92818372,73.960334 3.92818372,48.9181628 C3.92818372,41.8803716 5.50354906,35.2311023 8.22463466,29.3590814 C10.1887265,30.1365344 10.9661795,31.7118998 10.9661795,31.7118998 C10.9661795,31.7118998 11.7436326,33.2668058 13.3189979,39.1386221 C14.873904,45.0104384 18.4133612,45.7878914 18.4133612,45.7878914 C18.4133612,45.7878914 23.0985386,46.954071 28.1929019,46.954071 C33.2872651,46.954071 36.4175365,46.5653445 39.9365344,45.3991649 C43.4555324,43.8442589 44.6421712,39.5273486 44.6421712,39.5273486 C44.6421712,39.5273486 46.1970772,36.0083507 47.3835115,32.4893528 C47.3835115,32.1006263 48.1611691,31.7118998 48.549691,31.3231733 C48.9384175,31.7118998 49.7158706,31.7118998 49.7158706,32.4893528 C50.8820501,36.0083507 52.4574154,39.5273486 52.4574154,39.5273486 C52.4574154,39.5273486 54.0123215,43.8237996 57.1630522,45.3991649 C60.6818455,46.954071 63.8123215,46.954071 68.9064802,46.954071 C74.0008434,46.954071 78.6860209,45.7878914 78.6860209,45.7878914 C78.6860209,45.7878914 82.2050188,45.0104384 83.7803841,39.1386221 C85.3557495,33.2668058 85.744476,31.7118998 85.744476,31.7118998 C85.744476,31.7118998 86.5221336,30.1569937 88.4860209,29.3590814 C91.2275658,35.2308977 92.7824718,41.880167 92.7824718,48.9181628 C93.908142,73.960334 73.960334,93.908142 48.9181628,93.908142 Z M48.9181628,70.4208768 C62.6258873,70.4208768 70.4413361,62.605428 70.4413361,62.605428 L70.4413361,66.5131524 C70.4413361,66.5131524 62.6258873,74.3286013 48.9181628,74.3286013 C35.2104384,74.3286013 27.3949896,66.5131524 27.3949896,66.5131524 L27.3949896,62.605428 C27.3949896,62.605428 35.2104384,70.4208768 48.9181628,70.4208768 Z" id="Shape"></path>
            </g>
        </g>
    </g>
</svg>