<?xml version="1.0" encoding="UTF-8"?>
<svg viewBox="0 0 100 100" version="1.1" xmlns="http://www.w3.org/2000/svg" xmlns:xlink="http://www.w3.org/1999/xlink">
    <defs>
        <linearGradient x1="-32.3474778%" y1="132.206583%" x2="138.741829%" y2="-33.4286065%" id="linearGradient-1">
            <stop stop-color="#F5D03D" offset="0%"></stop>
            <stop stop-color="#FFFF80" offset="100%"></stop>
        </linearGradient>
    </defs>
    <g id="nervous" stroke="none" stroke-width="1" fill="none" fill-rule="evenodd">
        <g id="Group" transform="translate(1.000000, 1.000000)">
            <circle id="Oval-Copy" fill="url(#linearGradient-1)" cx="49" cy="49" r="48"></circle>
            <path d="M34,60 L63,60 C67.418278,60 71,63.581722 71,68 C71,72.418278 67.418278,76 63,76 L34,76 C29.581722,76 26,72.418278 26,68 C26,63.581722 29.581722,60 34,60 Z" id="Rectangle" fill="#FFFFFF"></path>
            <g id="worried-face-outlined-symbol-of-stroke" fill="#333333" fill-rule="nonzero">
                <path d="M34.9649269,26.576618 L21.993737,35.3331942 L19.8045929,32.1006263 L32.7757829,23.3440501 L34.9649269,26.576618 Z M31.302714,35.2308977 C29.1544885,35.2308977 27.3949896,36.9903967 27.3949896,39.1386221 C27.3949896,41.2868476 29.1544885,43.0463466 31.302714,43.0463466 C33.4509395,43.0463466 35.2104384,41.2868476 35.2104384,39.1386221 C35.2104384,36.9903967 33.4509395,35.2308977 31.302714,35.2308977 Z M97.8363257,48.9181628 C97.8363257,75.9244259 75.9244259,97.8363257 48.9181628,97.8363257 C21.9118998,97.8363257 0,75.9244259 0,48.9181628 C0,21.9118998 21.9118998,0 48.9181628,0 C75.9039666,0 97.8363257,21.9118998 97.8363257,48.9181628 Z M93.908142,48.9181628 C93.908142,23.8759916 73.960334,3.92818372 48.9181628,3.92818372 C23.8759916,3.92818372 3.92818372,23.8759916 3.92818372,48.9181628 C3.92818372,73.960334 23.8759916,93.908142 48.9181628,93.908142 C73.960334,93.908142 93.908142,73.960334 93.908142,48.9181628 Z M70.4208768,39.1386221 C70.4208768,36.9903967 68.6611733,35.2308977 66.5129478,35.2308977 C64.3647223,35.2308977 62.6052234,36.9903967 62.6052234,39.1386221 C62.6052234,41.2868476 64.3647223,43.0463466 66.5129478,43.0463466 C68.6611733,43.0463466 70.4208768,41.2868476 70.4208768,39.1386221 Z M62.8509395,26.5970772 L75.8219248,35.3536534 L78.0110689,32.1210856 L65.0400835,23.3645094 L62.8509395,26.5970772 Z M74.3490605,68.4772443 C74.3490605,73.960334 70.0526096,78.256785 64.5693152,78.256785 L33.2666013,78.256785 C27.7835115,78.256785 23.4870605,73.960334 23.4870605,68.4772443 C23.4870605,62.9941545 27.7835115,58.6977035 33.2666013,58.6977035 L64.5693152,58.6977035 C70.0321503,58.6977035 74.3490605,62.9941545 74.3490605,68.4772443 Z M35.1899791,70.4413361 L27.7632568,70.4413361 C28.5611691,72.7941545 30.5048017,74.3492651 33.2463466,74.3492651 L35.1899791,74.3492651 L35.1899791,70.4413361 Z M35.2308977,62.605428 L33.2668058,62.605428 C30.9139875,62.605428 28.5611691,64.160334 27.7837161,66.5131524 L35.2104384,66.5131524 L35.2308977,66.5131524 L35.2308977,62.605428 Z M46.954071,70.4413361 L39.1386221,70.4413361 L39.1386221,74.3490605 L46.954071,74.3490605 L46.954071,70.4413361 Z M46.954071,62.605428 L39.1386221,62.605428 L39.1386221,66.5131524 L46.954071,66.5131524 L46.954071,62.605428 Z M58.6977035,70.4413361 L50.8822547,70.4413361 L50.8822547,74.3490605 L58.6977035,74.3490605 L58.6977035,70.4413361 Z M58.6977035,62.605428 L50.8822547,62.605428 L50.8822547,66.5131524 L58.6977035,66.5131524 L58.6977035,62.605428 Z M70.0321503,70.4413361 L62.605428,70.4413361 L62.605428,74.3490605 L64.5695198,74.3490605 C67.3110647,74.3490605 69.2546973,72.7736952 70.0321503,70.4413361 Z M70.0526096,66.5131524 C69.2751566,64.160334 67.3110647,62.605428 64.5695198,62.605428 L62.6258873,62.605428 L62.6258873,66.5131524 L70.0526096,66.5131524 Z" id="Shape"></path>
            </g>
        </g>
    </g>
</svg>