<?xml version="1.0" encoding="UTF-8"?>
<svg viewBox="0 0 100 100" version="1.1" xmlns="http://www.w3.org/2000/svg" xmlns:xlink="http://www.w3.org/1999/xlink">
    <g id="smile" stroke="none" stroke-width="1" fill="none" fill-rule="evenodd">
        <g id="Group" transform="translate(1.000000, 1.000000)">
            <circle id="Oval-Copy" fill="#FFFF80" cx="49" cy="49" r="48"></circle>
            <g id="smiling-emoticon-face" fill="#000000" fill-rule="nonzero">
                <path d="M62.605428,35.2104384 C62.605428,33.0622129 64.3649269,31.302714 66.5131524,31.302714 C68.6613779,31.302714 70.4210814,33.0622129 70.4210814,35.2104384 C70.4210814,37.3586639 68.6613779,39.1181628 66.5131524,39.1181628 C64.3649269,39.1181628 62.605428,37.3586639 62.605428,35.2104384 Z M31.302714,39.1181628 C33.4509395,39.1181628 35.2104384,37.3586639 35.2104384,35.2104384 C35.2104384,33.0622129 33.4509395,31.302714 31.302714,31.302714 C29.1544885,31.302714 27.3949896,33.0622129 27.3949896,35.2104384 C27.3949896,37.3586639 29.1544885,39.1181628 31.302714,39.1181628 Z M27.3949896,62.605428 L27.3949896,66.5131524 C27.3949896,66.5131524 35.2104384,74.3286013 48.9181628,74.3286013 C62.6258873,74.3286013 70.4413361,66.5131524 70.4413361,66.5131524 L70.4413361,62.605428 C70.4413361,62.605428 62.6258873,70.4208768 48.9181628,70.4208768 C35.2104384,70.4208768 27.3949896,62.605428 27.3949896,62.605428 Z M97.8363257,48.9181628 C97.8363257,75.9244259 75.9244259,97.8363257 48.9181628,97.8363257 C21.9118998,97.8363257 0,75.9244259 0,48.9181628 C0,21.9118998 21.9118998,0 48.9181628,0 C75.9039666,0 97.8363257,21.9118998 97.8363257,48.9181628 Z M93.908142,48.9181628 C93.908142,23.8759916 73.960334,3.92818372 48.9181628,3.92818372 C23.8759916,3.92818372 3.92818372,23.8759916 3.92818372,48.9181628 C3.92818372,73.960334 23.8759916,93.908142 48.9181628,93.908142 C73.960334,93.908142 93.908142,73.960334 93.908142,48.9181628 Z" id="Shape"></path>
            </g>
        </g>
    </g>
</svg>